Bill is an urban youth, frustrated by the world around him. To put a stop to the plan he comes up with hundreds of residents from the small town where he lives, to murder. He dresses with armored clothing and buys a lot of automatic rifles on the internet.
 
http://www.imdb.com/title/tt1337057/

Subtitles (srt) : Dutch, English.

Cover included.

Bill is een stadse jongeman, die gefrustreerd is door de wereld om hem heen. Om hier een einde aan te maken komt hij met het plan honderden bewoners uit het kleine stadje waar hij woont, te vermoorden. Hij kleedt zich aan met gepantserde kleding en koopt een hoop automatische geweren via het internet.
 
http://www.moviemeter.nl/film/61833

Ondertitels (srt) : English, Nederlands.

Hoesje bijgevoegd.

General
Complete name                    : Rampage-AC3-XviD-DVDRip[Eng]2009 2Lions-TeamRampage-AC3-XviD-DVDRip[Eng]2009.avi
Format                           : AVI
Format/Info                      : Audio Video Interleave
File size                        : 1.45 GiB
Duration                         : 1h 24mn
Overall bit rate                 : 2 454 Kbps
Writing application              : VirtualDubMod 1.5.10.2 (build 2542/release)
Writing library                  : VirtualDubMod build 2542/release

Video
ID                               : 0
Format                           : MPEG-4 Visual
Format profile                   : Advanced Simple@L5
Format settings, BVOP            : Yes
Format settings, QPel            : No
Format settings, GMC             : No warppoints
Format settings, Matrix          : Custom
Muxing mode                      : Packed bitstream
Codec ID                         : XVID
Codec ID/Hint                    : XviD
Duration                         : 1h 24mn
Bit rate                         : 1 997 Kbps
Width                            : 720 pixels
Height                           : 304 pixels
Display aspect ratio             : 2.35:1
Frame rate                       : 23.976 fps
Resolution                       : 8 bits
Colorimetry                      : 4:2:0
Scan type                        : Progressive
Bits/(Pixel*Frame)               : 0.381
Stream size                      : 1.18 GiB (81%)
Writing library                  : XviD 1.2.1 (UTC 2008-12-04)

Audio
ID                               : 1
Format                           : AC-3
Format/Info                      : Audio Coding 3
Format_Settings_ModeExtension    : CM (complete main)
Codec ID                         : 2000
Duration                         : 1h 24mn
Bit rate mode                    : Constant
Bit rate                         : 448 Kbps
Channel(s)                       : 6 channels
Channel positions                : Front: L C R, Side: L R, LFE
Sampling rate                    : 48.0 KHz
Stream size                      : 271 MiB (18%)
Alignment                        : Split accross interleaves
Interleave, duration             : 42 ms (1.00 video frame)
Interleave, preload duration     : 500 ms

Source: Rampage 2009 NTSC COMPLETE DVDR-KART3LDVD

Thanks to Simply Releases Toppers for the source, and Dutch subs.. Nice job!

Brought to you by 
2Lions Team

meer zien??
Kom dan eens kijken op ons forum 
                    
http://www.2lions.ons-forum.nl

2Lions the site to be for all your Dutch MOVIES and more

******************************************

DON T HIT AND RUN Niet gelijk afhaken als de FILM binnen is blijf seeden. 

Don`t quit after you finished the download, but keep seeding

There are fake torrents from uploaders who use our team name.
Those are not ours, or members from our team.
We 2Lions-Team are not responsible for the fake posts on our name

Wij 2Lions-Team zijn niet verantwoordelijk voor die zieke FAKE posten die op onze naam worden gedaan

Please check our site !!!

to the fakers , get a life !!!
